PathFileType	4	(X/Y/Z)	RBDS05static.trc
DataRate	CameraRate	NumFrames	NumMarkers	Units	OrigDataRate	OrigDataStartFrame	OrigNumFrames
150.000000	150.000000	4	48	mm	150.000000	112	150
Frame#	Time	L.Ankle			L.Ankle.Medial			L.ASIS			L.GTR			L.Heel.Bottom			L.Heel.Lateral			L.Heel.Top			L.HF			L.Iliac.Crest			L.Knee			L.Knee.Medial			L.MT1			L.MT2			L.MT5			L.PSIS			L.Shank.Bottom.Lateral			L.Shank.Bottom.Medial			L.Shank.Top.Lateral			L.Shank.Top.Medial			L.Thigh.Bottom.Lateral			L.Thigh.Bottom.Medial			L.Thigh.Top.Lateral			L.Thigh.Top.Medial			L.TT			R.Ankle			R.Ankle.Medial			R.ASIS			R.GTR			R.Heel.Bottom			R.Heel.Lateral			R.Heel.Top			R.HF			R.Iliac.Crest			R.Knee			R.Knee.Medial			R.MT1			R.MT2			R.MT5			R.PSIS			R.Shank.Bottom.Lateral			R.Shank.Bottom.Medial			R.Shank.Top.Lateral			R.Shank.Top.Medial			R.Thigh.Bottom.Lateral			R.Thigh.Bottom.Medial			R.Thigh.Top.Lateral			R.Thigh.Top.Medial			R.TT			
		X1	Y1	Z1	X2	Y2	Z2	X3	Y3	Z3	X4	Y4	Z4	X5	Y5	Z5	X6	Y6	Z6	X7	Y7	Z7	X8	Y8	Z8	X9	Y9	Z9	X10	Y10	Z10	X11	Y11	Z11	X12	Y12	Z12	X13	Y13	Z13	X14	Y14	Z14	X15	Y15	Z15	X16	Y16	Z16	X17	Y17	Z17	X18	Y18	Z18	X19	Y19	Z19	X20	Y20	Z20	X21	Y21	Z21	X22	Y22	Z22	X23	Y23	Z23	X24	Y24	Z24	X25	Y25	Z25	X26	Y26	Z26	X27	Y27	Z27	X28	Y28	Z28	X29	Y29	Z29	X30	Y30	Z30	X31	Y31	Z31	X32	Y32	Z32	X33	Y33	Z33	X34	Y34	Z34	X35	Y35	Z35	X36	Y36	Z36	X37	Y37	Z37	X38	Y38	Z38	X39	Y39	Z39	X40	Y40	Z40	X41	Y41	Z41	X42	Y42	Z42	X43	Y43	Z43	X44	Y44	Z44	X45	Y45	Z45	X46	Y46	Z46	X47	Y47	Z47	X48	Y48	Z48	

113	0.7466666666666667	700.2282104492188	104.8381958007813	1043.671264648438	726.2325439453125	110.0146484375	1122.650634765625	834.6903076171875	978.9055786132813	1106.678588867188	755.2244873046875	888.6778564453125	1058.838989257813	637.748046875	38.26998138427734	1080.567260742188	671.317138671875	57.40480422973633	1039.911254882813	648.807373046875	87.46530151367188	1082.875732421875	732.7052612304688	449.5577697753906	1050.724975585938	762.5224609375	1037.923095703125	1067.252685546875	742.0715942382813	500.7163696289063	1057.90380859375	743.1558227539063	488.4035339355469	1175.356201171875	841.0075073242188	56.9038200378418	1127.267700195313	851.39111328125	66.80484008789063	1074.53857421875	820.5145263671875	50.90919494628906	1022.147338867188	676.0856323242188	1002.861450195313	1170.469970703125	709.9331665039063	185.3679809570313	1037.772338867188	669.7442016601563	182.8329620361328	1069.23388671875	706.5252075195313	265.6958618164063	1032.865234375	665.7818603515625	267.5769958496094	1066.849243164063	757.6600341796875	630.8385009765625	1043.200561523438	695.0414428710938	624.3922119140625	1080.742065429688	741.3865356445313	740.5823364257813	1043.187133789063	687.6588134765625	734.4143676757813	1085.868530273438	790.2850952148438	421.5871276855469	1097.349609375	692.72607421875	107.2403106689453	1408.667358398438	716.5565795898438	118.5054244995117	1334.557739257813	826.9951171875	987.5804443359375	1336.733764648438	743.1585693359375	894.0862426757813	1383.199829101563	631.0570068359375	39.4749755859375	1371.542358398438	659.0677490234375	53.85583114624023	1409.628173828125	640.8696899414063	87.35302734375	1371.856323242188	721.30859375	460.8168334960938	1389.568725585938	767.6581420898438	1030.9375	1362.187866210938	734.7659912109375	513.9910888671875	1384.04638671875	756.5310668945313	491.7902526855469	1273.239379882813	834.701904296875	58.16663360595703	1329.201293945313	841.572998046875	72.68913269042969	1370.113647460938	814.968994140625	52.67219924926758	1434.475463867188	677.85791015625	1010.614807128906	1258.56591796875	693.2257690429688	195.6049499511719	1411.895385742188	657.1986083984375	194.1424865722656	1370.486450195313	687.9331665039063	276.6409606933594	1410.848999023438	654.310302734375	273.9509887695313	1369.149047851563	753.6627197265625	607.9239501953125	1399.54296875	690.6769409179688	601.8190307617188	1360.996459960938	739.5668334960938	717.7899780273438	1400.131713867188	681.4691162109375	711.7703857421875	1360.495971679688	783.6566772460938	429.5054626464844	1355.730834960938	
114	0.7533333333333334	700.230224609375	104.8367691040039	1043.662841796875	726.2315063476563	110.0229568481445	1122.651733398438	834.6876831054688	978.9135131835938	1106.656372070313	755.236328125	888.6619262695313	1058.82763671875	637.7487182617188	38.27322769165039	1080.5751953125	671.3211059570313	57.40137100219727	1039.915649414063	648.8096313476563	87.46852111816406	1082.876586914063	732.7346801757813	449.50830078125	1050.711791992188	762.5173950195313	1037.913452148438	1067.246948242188	742.08544921875	500.7109985351563	1057.897583007813	743.162353515625	488.4074401855469	1175.349609375	841.0065307617188	56.90144348144531	1127.261352539063	851.3903198242188	66.80821228027344	1074.5283203125	820.5181884765625	50.90560150146484	1022.145935058594	676.0757446289063	1002.857299804688	1170.470458984375	709.9418334960938	185.3718566894531	1037.774169921875	669.7466430664063	182.8349914550781	1069.230224609375	706.533447265625	265.70556640625	1032.867553710938	665.790771484375	267.571044921875	1066.842651367188	757.6720581054688	630.8333740234375	1043.197265625	695.0599975585938	624.3936157226563	1080.734375	741.3972778320313	740.5765380859375	1043.17822265625	687.664306640625	734.4114379882813	1085.869262695313	790.3084716796875	421.5947265625	1097.351318359375	692.730712890625	107.236572265625	1408.668579101563	716.5488891601563	118.5029067993164	1334.555053710938	826.9971923828125	987.5787353515625	1336.7265625	743.15771484375	894.0838623046875	1383.193725585938	631.0673828125	39.47023391723633	1371.54443359375	659.0681762695313	53.86115264892578	1409.61962890625	640.8681640625	87.35021209716797	1371.85595703125	721.3256225585938	460.8070678710938	1389.56298828125	767.662353515625	1030.933471679688	1362.194580078125	734.7739868164063	513.99951171875	1384.056762695313	756.53369140625	491.818115234375	1273.248779296875	834.7047729492188	58.16715621948242	1329.203735351563	841.5632934570313	72.69872283935547	1370.1240234375	814.9716796875	52.66826629638672	1434.465698242188	677.8580932617188	1010.607055664063	1258.561279296875	693.2213134765625	195.6090087890625	1411.902954101563	657.2050170898438	194.1381225585938	1370.481323242188	687.9328002929688	276.6423645019531	1410.85302734375	654.3123168945313	273.94580078125	1369.142822265625	753.6699829101563	607.9310302734375	1399.549072265625	690.6760864257813	601.810302734375	1360.995483398438	739.5777587890625	717.7855224609375	1400.126708984375	681.4788818359375	711.763671875	1360.49951171875	783.65966796875	429.5093383789063	1355.740234375	
115	0.76	700.2217407226563	104.8404083251953	1043.666870117188	726.2399291992188	110.0175476074219	1122.658081054688	834.68212890625	978.9057006835938	1106.643432617188	755.2333374023438	888.6690063476563	1058.824829101563	637.7549438476563	38.26787948608398	1080.558959960938	671.3201904296875	57.41055679321289	1039.914916992188	648.8164672851563	87.46076202392578	1082.870361328125	732.7319946289063	449.5403137207031	1050.718994140625	762.4996337890625	1037.909423828125	1067.2451171875	742.0966796875	500.7120056152344	1057.890747070313	743.1831665039063	488.3996276855469	1175.346435546875	841.010986328125	56.91226959228516	1127.273559570313	851.392578125	66.80997467041016	1074.53369140625	820.519287109375	50.8961067199707	1022.152954101563	676.0792846679688	1002.856323242188	1170.463989257813	709.9501342773438	185.3702239990234	1037.768798828125	669.7520141601563	182.8325042724609	1069.233764648438	706.5382080078125	265.6980590820313	1032.857666015625	665.7970581054688	267.5751953125	1066.845947265625	757.6712646484375	630.827880859375	1043.19140625	695.0621948242188	624.380126953125	1080.734252929688	741.3929443359375	740.5750122070313	1043.175537109375	687.668212890625	734.4032592773438	1085.871337890625	790.3046264648438	421.5795593261719	1097.340087890625	692.7277221679688	107.2332916259766	1408.66748046875	716.5708618164063	118.5077438354492	1334.56103515625	826.9984130859375	987.5813598632813	1336.709838867188	743.1635131835938	894.0786743164063	1383.200439453125	631.0585327148438	39.46677398681641	1371.543334960938	659.0692138671875	53.85689544677734	1409.62451171875	640.8707275390625	87.35131072998047	1371.857055664063	721.31591796875	460.8143005371094	1389.567016601563	767.6608276367188	1030.934326171875	1362.188110351563	734.7819213867188	513.9921264648438	1384.046508789063	756.5186767578125	491.7987976074219	1273.25048828125	834.7114868164063	58.16396713256836	1329.196899414063	841.563232421875	72.69283294677734	1370.122680664063	814.974609375	52.66939544677734	1434.45751953125	677.860107421875	1010.603271484375	1258.556518554688	693.2322387695313	195.607421875	1411.894775390625	657.2011108398438	194.1421661376953	1370.487182617188	687.94091796875	276.632568359375	1410.837768554688	654.3093872070313	273.9463806152344	1369.142456054688	753.6773071289063	607.9252319335938	1399.53515625	690.6817016601563	601.8097534179688	1360.999267578125	739.5848388671875	717.7777709960938	1400.135498046875	681.4771118164063	711.7620239257813	1360.507690429688	783.6593017578125	429.5097045898438	1355.732299804688	
116	0.7666666666666667	700.2288208007813	104.83251953125	1043.670776367188	726.2366333007813	110.0279312133789	1122.659423828125	834.6797485351563	978.9083862304688	1106.62255859375	755.229736328125	888.662109375	1058.823974609375	637.7550659179688	38.27456665039063	1080.56494140625	671.3184204101563	57.40388107299805	1039.906494140625	648.8137817382813	87.45450592041016	1082.873413085938	732.76025390625	449.5357055664063	1050.7041015625	762.4783325195313	1037.897216796875	1067.231567382813	742.1060180664063	500.7154235839844	1057.8896484375	743.2224731445313	488.3983459472656	1175.345092773438	841.0130004882813	56.91279602050781	1127.271240234375	851.3989868164063	66.80732727050781	1074.531860351563	820.5137939453125	50.89981460571289	1022.151550292969	676.0748291015625	1002.848693847656	1170.462890625	709.9429931640625	185.3691253662109	1037.762573242188	669.7491455078125	182.8452453613281	1069.223266601563	706.5448608398438	265.7054138183594	1032.864501953125	665.8056640625	267.5762939453125	1066.833984375	757.6726684570313	630.8331909179688	1043.176635742188	695.071044921875	624.3814086914063	1080.732055664063	741.3873901367188	740.5767211914063	1043.164916992188	687.68017578125	734.3966064453125	1085.876586914063	790.3165893554688	421.5821533203125	1097.324951171875	692.7300415039063	107.2416763305664	1408.6630859375	716.552978515625	118.508659362793	1334.546752929688	827.00537109375	987.5820922851563	1336.711303710938	743.1705932617188	894.0845947265625	1383.192504882813	631.05419921875	39.47356414794922	1371.544799804688	659.0650634765625	53.86050415039063	1409.627319335938	640.865966796875	87.34697723388672	1371.858154296875	721.3223876953125	460.8166809082031	1389.566528320313	767.6581420898438	1030.927978515625	1362.1796875	734.784912109375	513.9852905273438	1384.047241210938	756.5256958007813	491.7796936035156	1273.2353515625	834.7092895507813	58.16512680053711	1329.203125	841.5598754882813	72.70204162597656	1370.114990234375	814.9818115234375	52.67346954345703	1434.460815429688	677.8676147460938	1010.600891113281	1258.546997070313	693.2288818359375	195.6113739013672	1411.895141601563	657.1981201171875	194.1407470703125	1370.490966796875	687.9369506835938	276.6358947753906	1410.849731445313	654.3115844726563	273.951171875	1369.139526367188	753.6849975585938	607.9209594726563	1399.529663085938	690.6790771484375	601.80712890625	1361.00439453125	739.579833984375	717.7879028320313	1400.12646484375	681.4738159179688	711.7646484375	1360.502075195313	783.6591796875	429.5099487304688	1355.719604492188	
